<svg xmlns="http://www.w3.org/2000/svg" viewBox="0 0 400 264.4434509" enable-background="new 0 0 400 264.4434509"><style type="text/css">.st0{fill:#FFFFFF;}</style><path class="st0" d="M100.8 216.544c-9.102 0-16.478 7.376-16.478 16.48s7.376 16.472 16.48 16.472c9.097 0 16.478-7.37 16.478-16.473 0-9.103-7.38-16.48-16.48-16.48zm0 24.588c-4.48 0-8.113-3.634-8.113-8.11 0-4.48 3.628-8.114 8.114-8.114 4.482 0 8.11 3.634 8.11 8.115s-3.633 8.11-8.11 8.11zM142.172 216.544c-9.103 0-16.48 7.376-16.48 16.48s7.377 16.472 16.48 16.472 16.48-7.37 16.48-16.473c0-9.103-7.377-16.48-16.48-16.48zm0 24.588c-4.48 0-8.11-3.634-8.11-8.11 0-4.48 3.63-8.114 8.11-8.114s8.115 3.634 8.115 8.115-3.634 8.11-8.115 8.11zM183.548 216.544c-9.097 0-16.478 7.376-16.478 16.48s7.375 16.472 16.478 16.472 16.48-7.37 16.48-16.473c0-9.103-7.382-16.48-16.48-16.48zm0 24.588c-4.48 0-8.11-3.634-8.11-8.11 0-4.48 3.63-8.114 8.11-8.114s8.115 3.634 8.115 8.115c-.006 4.48-3.634 8.11-8.115 8.11zM224.925 216.544c-9.103 0-16.48 7.376-16.48 16.48s7.377 16.472 16.48 16.472 16.473-7.37 16.473-16.473c0-9.103-7.37-16.48-16.473-16.48zm0 24.588c-4.48 0-8.115-3.634-8.115-8.11 0-4.48 3.634-8.114 8.115-8.114 4.475 0 8.11 3.634 8.11 8.115s-3.635 8.11-8.11 8.11zM266.296 216.544c-9.103 0-16.48 7.376-16.48 16.48s7.377 16.472 16.48 16.472 16.478-7.37 16.478-16.473c0-9.103-7.375-16.48-16.478-16.48zm0 24.588c-4.48 0-8.11-3.634-8.11-8.11 0-4.48 3.63-8.114 8.11-8.114s8.114 3.634 8.114 8.115-3.634 8.11-8.114 8.11zM307.672 216.544c-9.103 0-16.48 7.376-16.48 16.48s7.377 16.472 16.48 16.472 16.48-7.37 16.48-16.473c0-9.103-7.377-16.48-16.48-16.48zm0 24.588c-4.48 0-8.115-3.634-8.115-8.11 0-4.48 3.634-8.114 8.115-8.114s8.11 3.634 8.11 8.115-3.63 8.11-8.11 8.11z"/><path id="XMLID_10_" class="st0" d="M208.685 185.406l.44 31.258c-2.118 2.22-3.775 4.882-4.823 7.837h.114c-1.027-2.894-2.645-5.517-4.704-7.717l.532-31.377h8.44z"/><path id="XMLID_9_" class="st0" d="M202.7 39.74L203.366 0h2.716l.56 39.74z"/><path id="XMLID_8_" class="st0" d="M273.242 47.036h20.7v131.07h-20.7z"/><path id="XMLID_7_" class="st0" d="M233.984 47.036h20.7v131.07h-20.7z"/><path id="XMLID_6_" class="st0" d="M194.732 47.036h20.694v131.07h-20.694z"/><path id="XMLID_5_" class="st0" d="M155.473 47.036h20.694v131.07h-20.694z"/><path id="XMLID_4_" class="st0" d="M116.215 47.036h20.694v131.07h-20.695z"/><path id="XMLID_3_" class="st0" d="M97.26 57.768h11.2v3.563h-11.2z"/><path id="XMLID_2_" class="st0" d="M301.013 57.768h11.2v3.563h-11.2z"/><path id="XMLID_1_" class="st0" d="M385.32 194.058c-.68-4.073 2.932-8.2 7.11-8.2 4.175 0 7.57 3.393 7.57 7.57 0 .565-.08 1.146-.244 1.83-.033.12-.142.207-.26.207h-.023c-.13-.01-.24-.114-.25-.245-.18-1.94-1.76-3.405-3.666-3.405-2.058 0-3.737 1.684-3.737 3.737 0 2.064 1.684 3.737 3.737 3.737.33 0 .64-.094.972-.192l.092-.027c.114-.058.255.028.32.137.06.114.022.26-.087.337-1.31.95-2.84 1.45-4.42 1.45 0 0 1.38 5.97 1.38 12.48 0 46.95-24.828 50.97-24.828 50.97H26.077S0 245.965 0 220.14c0-14.768 6.92-19.385 9.923-20.075.695 2.77-1.38 4.617-1.38 4.617s-1.976-2.39-3.23.695c-1.196 2.944-2.722 10.244-.685 17.88 5.062 5.068 23.154 18.804 75.398 18.804v.316c3.03 8.55 11.2 14.686 20.775 14.686 9.57 0 17.74-6.137 20.77-14.686h-.113c3.03 8.55 11.2 14.686 20.77 14.686s17.738-6.137 20.77-14.686h-.115c3.03 8.55 11.194 14.686 20.77 14.686 9.575 0 17.744-6.137 20.77-14.686h-.115c3.036 8.55 11.2 14.686 20.775 14.686 9.57 0 17.74-6.137 20.764-14.686h-.114c3.03 8.55 11.2 14.686 20.77 14.686s17.74-6.137 20.77-14.686h-.114c3.036 8.55 11.2 14.686 20.77 14.686s17.744-6.137 20.77-14.686c3.584 0 47.97-3.954 55.595-15.898 7.815-12.22 1.613-28.884 1.026-32.42z"/></svg>