<svg xmlns="http://www.w3.org/2000/svg" width="28" height="28" viewBox="0 0 28 28"><path d="M10.547 20.062q.328-.53.172-1.078t-.704-.78q-.53-.22-1.14-.017t-.94.72q-.343.53-.202 1.07t.672.788 1.164.04.977-.743zm1.47-1.89q.124-.203.054-.414t-.272-.29q-.22-.077-.445.01t-.336.288q-.266.484.203.703.22.077.453-.01t.344-.288zm2.717 1.672q-.703 1.594-2.47 2.344t-3.5.187q-1.67-.53-2.304-1.977t.102-2.93q.734-1.453 2.367-2.172T12.217 15q1.734.452 2.477 1.866t.04 2.977zm4.875-2.5q-.142-1.5-1.392-2.656t-3.258-1.703-4.29-.328q-3.483.36-5.772 2.21t-2.07 4.134q.14 1.5 1.39 2.657t3.26 1.703 4.288.328q3.484-.36 5.773-2.21t2.07-4.134zm4.812.062q0 1.062-.578 2.18t-1.703 2.14-2.632 1.837-3.53 1.297-4.228.484-4.297-.523-3.758-1.452-2.68-2.36T0 17.893q0-1.797 1.085-3.828t3.086-4.03Q6.813 7.39 9.508 6.345t3.852.11q1.015 1 .312 3.265-.063.22-.016.314t.156.11.227-.01.21-.054l.094-.03q2.172-.923 3.844-.923t2.39.953q.704.984 0 2.78-.03.204-.07.314t.07.195.188.116.266.094q.89.28 1.61.734t1.25 1.273.53 1.82zm-1.156-9.75q.656.734.852 1.695t-.102 1.837q-.125.36-.46.53t-.696.064q-.36-.124-.53-.46t-.064-.695q.313-.984-.375-1.734t-1.67-.546q-.376.078-.704-.125t-.39-.58q-.08-.374.124-.694t.578-.398q.938-.203 1.86.086t1.577 1.023zm2.828-2.547q1.36 1.5 1.758 3.476t-.21 3.773q-.142.42-.532.624t-.812.063-.625-.53-.078-.813q.438-1.28.156-2.688t-1.25-2.47q-.968-1.077-2.31-1.49t-2.704-.134q-.438.094-.812-.148t-.47-.68.15-.805.68-.462q1.92-.406 3.812.18t3.25 2.102z"/></svg>