<?xml version="1.0" encoding="utf-8"?>
<!-- Generator: Adobe Illustrator 19.0.0, SVG Export Plug-In . SVG Version: 6.00 Build 0)  -->
<svg version="1.1" id="Layer_1" xmlns="http://www.w3.org/2000/svg" xmlns:xlink="http://www.w3.org/1999/xlink" x="0px" y="0px"
	 viewBox="0 0 400 264.4434509" style="enable-background:new 0 0 400 264.4434509;" xml:space="preserve">
<style type="text/css">
	.st0{fill:#FFFFFF;}
</style>
<g>
	<path class="st0" d="M100.8011398,216.5440063c-9.1030121,0-16.4788361,7.3758392-16.4788361,16.4788361
		s7.375824,16.4734039,16.4788361,16.4734039c9.0975723,0,16.4788361-7.3703766,16.4788361-16.4734039
		C117.2799759,223.9198303,109.8987198,216.5440063,100.8011398,216.5440063z M100.8011398,241.1319122
		c-4.480896,0-8.1144867-3.6335907-8.1144867-8.1090698c0-4.480896,3.6281586-8.1144867,8.1144867-8.1144867
		c4.4809036,0,8.1090622,3.6335907,8.1090622,8.1144867S105.2766113,241.1319122,100.8011398,241.1319122z"/>
	<path class="st0" d="M142.1720276,216.5440063c-9.1030121,0-16.4788361,7.3758392-16.4788361,16.4788361
		s7.375824,16.4734039,16.4788361,16.4734039s16.4788208-7.3703766,16.4788208-16.4734039
		C158.6508484,223.9198303,151.2750397,216.5440063,142.1720276,216.5440063z M142.1720276,241.1319122
		c-4.480896,0-8.1090698-3.6335907-8.1090698-8.1090698c0-4.480896,3.6281738-8.1144867,8.1090698-8.1144867
		s8.1144867,3.6335907,8.1144867,8.1144867S146.6529236,241.1319122,142.1720276,241.1319122z"/>
	<path class="st0" d="M183.5483551,216.5440063c-9.09758,0-16.4788361,7.3758392-16.4788361,16.4788361
		s7.3758392,16.4734039,16.4788361,16.4734039s16.4788361-7.3703766,16.4788361-16.4734039
		C200.0271912,223.9198303,192.6459198,216.5440063,183.5483551,216.5440063z M183.5483551,241.1319122
		c-4.480896,0-8.1090698-3.6335907-8.1090698-8.1090698c0-4.480896,3.6281738-8.1144867,8.1090698-8.1144867
		s8.1144867,3.6335907,8.1144867,8.1144867C191.6574097,237.5037384,188.0292358,241.1319122,183.5483551,241.1319122z"/>
	<path class="st0" d="M224.9246674,216.5440063c-9.1029968,0-16.4788361,7.3758392-16.4788361,16.4788361
		s7.3758392,16.4734039,16.4788361,16.4734039s16.4734039-7.3703766,16.4734039-16.4734039
		C241.3980713,223.9198303,234.0276642,216.5440063,224.9246674,216.5440063z M224.9246674,241.1319122
		c-4.480896,0-8.1144867-3.6335907-8.1144867-8.1090698c0-4.480896,3.6335907-8.1144867,8.1144867-8.1144867
		c4.4754791,0,8.1090698,3.6335907,8.1090698,8.1144867S229.400116,241.1319122,224.9246674,241.1319122z"/>
	<path class="st0" d="M266.2955322,216.5440063c-9.1029968,0-16.4788361,7.3758392-16.4788361,16.4788361
		s7.3758392,16.4734039,16.4788361,16.4734039s16.4788513-7.3703766,16.4788513-16.4734039
		C282.7743835,223.9198303,275.3985596,216.5440063,266.2955322,216.5440063z M266.2955322,241.1319122
		c-4.480896,0-8.1090698-3.6335907-8.1090698-8.1090698c0-4.480896,3.6281738-8.1144867,8.1090698-8.1144867
		s8.114502,3.6335907,8.114502,8.1144867S270.7764282,241.1319122,266.2955322,241.1319122z"/>
	<path class="st0" d="M307.6718445,216.5440063c-9.1029968,0-16.4788208,7.3758392-16.4788208,16.4788361
		s7.375824,16.4734039,16.4788208,16.4734039s16.4788513-7.3703766,16.4788513-16.4734039
		C324.1506958,223.9198303,316.7748718,216.5440063,307.6718445,216.5440063z M307.6718445,241.1319122
		c-4.480896,0-8.1144714-3.6335907-8.1144714-8.1090698c0-4.480896,3.6335754-8.1144867,8.1144714-8.1144867
		s8.1090698,3.6335907,8.1090698,8.1144867S312.1527405,241.1319122,307.6718445,241.1319122z"/>
	<path id="XMLID_10_" class="st0" d="M208.6848145,185.4058685l0.4399414,31.2576447
		c-2.1182404,2.2214508-3.7748108,4.8828125-4.8230743,7.8375092h0.1140594
		c-1.0265198-2.8949432-2.6450806-5.5182953-4.7035828-7.7180176l0.5322723-31.3771362H208.6848145z"/>
	<polygon id="XMLID_9_" class="st0" points="202.6994171,39.7414627 203.3674774,0 206.0831757,0 206.6426086,39.7414627 	"/>
	<rect id="XMLID_8_" x="273.2423096" y="47.03582" class="st0" width="20.6990242" height="131.0702667"/>
	<rect id="XMLID_7_" x="233.9842224" y="47.03582" class="st0" width="20.6990242" height="131.0702667"/>
	<rect id="XMLID_6_" x="194.7315674" y="47.03582" class="st0" width="20.6935959" height="131.0702667"/>
	<rect id="XMLID_5_" x="155.4734955" y="47.03582" class="st0" width="20.6935959" height="131.0702667"/>
	<rect id="XMLID_4_" x="116.2154312" y="47.03582" class="st0" width="20.6935863" height="131.0702667"/>
	<rect id="XMLID_3_" x="97.2598877" y="57.7682419" class="st0" width="11.1995239" height="3.5629914"/>
	<rect id="XMLID_2_" x="301.01297" y="57.7682419" class="st0" width="11.1995239" height="3.5629914"/>
	<path id="XMLID_1_" class="st0" d="M385.3189697,194.058075c-0.6789246-4.0735474,2.9329834-8.2014008,7.1096802-8.2014008
		c4.1767273,0,7.5713501,3.3946228,7.5713501,7.5713654c0,0.5648651-0.0814819,1.1460114-0.2444153,1.8303833
		c-0.0325623,0.1194916-0.1412048,0.2063904-0.2606812,0.2063904c-0.0054321,0-0.0108643,0-0.021698,0
		c-0.1303711-0.0108643-0.2389832-0.1140594-0.2498474-0.2444c-0.1791992-1.9389954-1.7597351-3.4054718-3.6661987-3.4054718
		c-2.0584717,0-3.7368164,1.6837311-3.7368164,3.7367859c0,2.0639343,1.6837158,3.7368011,3.7368164,3.7368011
		c0.3312988,0,0.6408997-0.0923309,0.972229-0.1901093l0.0923157-0.0271606
		c0.1140747-0.0597534,0.255249,0.0271606,0.3204346,0.1358032c0.0597534,0.1140594,0.0217285,0.2606964-0.0868835,0.3367462
		c-1.30896,0.9504852-2.8406372,1.4501648-4.4211731,1.4501648c0,0,1.3795776,5.9690857,1.3795776,12.4813385
		c0,46.9489136-24.8268738,50.9681396-24.8268738,50.9681396c-27.8033142,0-342.9107056,0-342.9107056,0
		S0,245.9658661,0,220.1396332c0-14.7679596,6.9195895-19.3846283,9.9231472-20.0744171
		c0.6952162,2.7700043-1.3795738,4.6166687-1.3795738,4.6166687s-1.9770246-2.389801-3.2316747,0.6952209
		c-1.1949058,2.9438019-2.7211254,10.2436066-0.6843548,17.880127c5.0620646,5.0674591,23.1540184,18.8034515,75.3985443,18.8034515
		v0.3150177c3.0307236,8.5490112,11.1995239,14.6864624,20.7750702,14.6864624
		c9.5700989,0,17.7389145-6.1374817,20.7696228-14.6864624h-0.1140594
		c3.0307159,8.5490112,11.1995163,14.6864624,20.7696304,14.6864624c9.5700989,0,17.7389069-6.1374817,20.7696228-14.6864624
		h-0.1140594c3.0307159,8.5490112,11.1941071,14.6864624,20.7696381,14.6864624
		c9.5755463,0,17.744339-6.1374817,20.7696381-14.6864624h-0.1140594
		c3.0361328,8.5490112,11.1995239,14.6864624,20.7750702,14.6864624c9.5701141,0,17.7389069-6.1374817,20.7642059-14.6864624
		h-0.1140594c3.0307007,8.5490112,11.1995087,14.6864624,20.7696381,14.6864624
		c9.5700989,0,17.7388916-6.1374817,20.7696228-14.6864624h-0.1140442
		c3.0361328,8.5490112,11.1995239,14.6864624,20.7696228,14.6864624c9.5701294,0,17.7443542-6.1374817,20.7696533-14.6864624
		c3.5847168,0,47.9700012-3.9540558,55.5956726-15.8976898C392.1082153,214.2573853,385.9055786,197.5939026,385.3189697,194.058075
		z"/>
</g>
</svg>
