<svg style="position:absolute;width:0;height:0" width="0" height="0" xmlns="http://www.w3.org/2000/svg"><defs><symbol viewBox="0 0 950.8560180664062 1024"><title>twitter</title><path class="path1" d="M925.714 233.143q-38.286 56-92.57 95.43.57 8 .57 24 0 74.285-21.714 148.285t-66 142-105.43 120.286-147.428 83.43-184.57 31.142q-154.858 0-283.43-82.857 20 2.285 44.57 2.285 128.572 0 229.144-78.857-60-1.143-107.43-36.857t-65.142-91.142q18.857 2.857 34.857 2.857 24.572 0 48.572-6.286-64-13.144-106-63.715t-42-117.43v-2.285q38.857 21.714 83.43 23.43-37.715-25.144-60-65.715t-22.287-88q0-50.286 25.143-93.143 69.143 85.143 168.286 136.286t212.286 56.857Q464 351.43 464 330.86q0-76.572 54-130.572t130.57-54q80 0 134.857 58.286 62.286-12 117.143-44.57-21.143 65.713-81.143 101.713 53.143-5.714 106.286-28.57z"/></symbol><symbol viewBox="0 0 1028.28565724683 1024"><title>weibo</title><path class="path1" d="M385.714 733.714q12-19.43 6.286-39.43t-25.714-28.57q-19.43-8-41.714-.57t-34.286 26.285q-12.57 19.428-7.43 39.142t24.572 28.857 42.57 1.428 35.715-27.143zm53.715-69.143q4.57-7.428 2-15.142t-10-10.57q-8-2.858-16.287.285t-12.286 10.57q-9.714 17.715 7.43 25.715 8 2.857 16.57-.286t12.57-10.57zm99.427 61.144Q513.143 784 448.57 811.428t-128 6.857Q259.43 798.855 236.286 746T240 638.855q26.856-53.143 86.57-79.43t120.286-10.856q63.43 16.57 90.57 68.286t1.43 108.857zm178.286-91.428Q712 579.43 666.286 537.143t-119.143-62.286-156.857-12Q262.856 476 179.143 543.714T103.43 694.857q5.142 54.857 50.856 97.143t119.143 62.286 156.856 12q127.43-13.143 211.143-80.857t75.713-151.144zm176 2.285q0 38.858-21.143 79.715t-62.286 78.286-96.286 67.144-129.143 47.43-154.57 17.713-157.144-19.143-137.428-53.143-98-86.285T0 654.285q0-65.714 39.713-140t112.857-147.43Q249.14 270.286 347.713 232t140.857 4q37.143 36.57 11.43 119.428-2.287 8-.572 11.43t5.714 4 8.286-.287 7.714-2l3.43-1.142Q604 333.714 665.14 333.714t87.43 34.857q25.713 36 0 101.715-1.144 7.43-2.572 11.43t2.57 7.142 6.858 4.286 9.714 3.43q32.57 10.285 58.857 26.856T873.712 570t19.43 66.57zM850.857 280q24 26.857 31.143 62t-3.714 67.143q-4.57 13.143-16.857 19.43T836 430.857q-13.143-4.57-19.43-16.857t-2.285-25.428q11.43-36-13.714-63.43t-61.142-20q-13.714 2.858-25.714-4.57t-14.286-21.143q-2.857-13.715 4.57-25.43t21.144-14.57q34.286-7.43 68 3.142t57.714 37.43zm103.43-93.143Q1004 241.714 1018.57 314t-7.714 138q-5.143 15.43-19.43 22.857t-29.713 2.286-22.857-19.43T936 428q16-46.857 5.715-98.286T896 239.428q-35.428-39.43-84.57-54.57T712.573 180q-16 3.43-29.714-5.43t-17.144-24.856 5.43-29.43T696 103.43q70.286-14.857 139.43 6.57t118.856 76.858z"/></symbol><symbol viewBox="0 0 877.7150707244873 1024"><title>facebook</title><path class="path1" d="M829.143 73.143q20 0 34.286 14.286t14.285 34.285v780.57q0 20-14.286 34.287t-34.287 14.286h-223.43v-340H719.43l17.143-132.57H605.715v-84.572q0-32 13.43-48t52.285-16l69.713-.57V210.858q-36-5.144-101.714-5.144-77.715 0-124.287 45.714t-46.57 129.143v97.714H354.285v132.57h114.286v340h-420q-20 0-34.286-14.285T0 902.286v-780.57q0-20 14.286-34.287t34.286-14.287h780.57z"/></symbol></defs></svg>